<svg width="16" height="16" viewBox="0 0 12 12" xmlns="http://www.w3.org/2000/svg"><path d="M7.69 9.071c-.322 0-.578-.103-.77-.31-.184-.207-.276-.487-.276-.84 0-.176.015-.394.046-.655.038-.26.096-.56.172-.897l.265-1.196c.054-.23.096-.433.127-.61.03-.184.046-.337.046-.46 0-.452-.177-.678-.53-.678-.436 0-.877.291-1.322.874-.437.575-.72 1.146-.851 1.713l-.621 2.944h-1.07l1.265-6.003-1.069.541.138-.644 1.07-.552.092-.46c.069-.337.103-.537.103-.598C4.505.88 4.237.7 3.7.7h-.092l.103-.484h2.117l-.311 1.461 1.242-.633-.138.667-1.242.621a55.46 55.46 0 0 1-.218.955 34.7 34.7 0 0 1-.242.954h.127C5.682 3.206 6.39 2.69 7.173 2.69c.82 0 1.23.425 1.23 1.276 0 .246-.069.667-.207 1.265l-.299 1.357c-.053.23-.092.445-.115.644-.023.2-.034.388-.034.564 0 .368.134.552.402.552.223 0 .468-.088.736-.265l.207.334c-.49.437-.958.655-1.403.655z" style="font-style:normal;font-variant:normal;font-weight:400;font-stretch:normal;font-size:11.5px;line-height:0;font-family:'Noto Serif';-inkscape-font-specification:'Noto Serif';font-variant-ligatures:normal;font-variant-caps:normal;font-variant-numeric:normal;font-feature-settings:normal;text-align:start;writing-mode:lr-tb;text-anchor:start;fill:#000;fill-opacity:1;stroke:none;stroke-width:.15;stroke-linecap:square;stroke-linejoin:bevel;stroke-miterlimit:4;stroke-dasharray:none;stroke-dashoffset:0;stroke-opacity:1;paint-order:markers stroke fill"/></svg>